<svg width="24" height="24" viewBox="0 0 24 24" fill="none" xmlns="http://www.w3.org/2000/svg">
<path d="M10.9141 20.5307L10.9113 20.5302L10.8644 20.5223C9.28612 20.2569 7.81188 20.0089 6.34258 19.7402C4.66298 19.433 3.56397 18.5496 2.98869 17.0331C2.83654 16.632 2.6319 16.2833 2.40251 15.9617L1.79191 16.3972L2.40251 15.9617C-1.48006 10.5184 1.84492 2.91955 8.69696 1.8748C11.5389 1.44148 14.0479 2.14324 16.3177 3.8774C17.3504 4.66639 18.4691 5.32099 19.542 5.94879L19.561 5.95988C20.1482 6.3035 20.722 6.63933 21.2803 6.99328C21.6378 7.21997 21.9998 7.43754 22.3529 7.64979L22.3567 7.65207C22.6036 7.80049 22.8462 7.94635 23.0862 8.09436C23.0939 8.10757 23.1041 8.12685 23.116 8.15319C23.1583 8.24756 23.1989 8.38247 23.2244 8.53471C23.245 8.6577 23.2523 8.77144 23.2494 8.86257C23.2273 8.86223 23.2022 8.86163 23.1725 8.86087L23.1688 8.86077C23.1269 8.8597 23.0741 8.85835 23.0204 8.85843C22.2176 8.85964 21.4149 8.86438 20.6142 8.86911H20.6141C18.4721 8.88175 16.3438 8.89426 14.2193 8.84013C13.3859 8.81889 12.6088 9.10851 12.1285 9.72379C11.6368 10.3538 11.5663 11.184 11.8802 11.9946C12.0474 12.4265 12.1819 12.8755 12.326 13.3578L12.3269 13.3608C12.3912 13.5761 12.4575 13.7982 12.5278 14.02C12.7972 14.8711 13.243 15.5711 13.9092 16.0517C14.5738 16.5311 15.3851 16.7396 16.2916 16.7411L17.2769 16.743C17.4509 16.7433 17.6156 16.7437 17.773 16.744C19.282 16.7472 20.1076 16.7489 21.7799 16.7353C21.9476 16.7339 22.0313 16.7597 22.0748 16.7809C22.1109 16.7984 22.162 16.8327 22.2275 16.9344C22.9919 18.12 23.1923 19.3265 22.7601 20.5996C22.3745 21.7356 21.0713 22.4636 19.5404 22.1953C18.4455 22.0035 17.5955 21.8139 16.7349 21.6219L16.6869 21.6112C15.809 21.4154 14.9165 21.2173 13.7618 21.0194L13.7487 21.0172C12.8036 20.8552 11.8588 20.6933 10.9141 20.5307Z" stroke="black" stroke-width="1.5"/>
</svg>
