<?xml version="1.0" standalone="no"?>
<!DOCTYPE svg PUBLIC "-//W3C//DTD SVG 20010904//EN"
 "http://www.w3.org/TR/2001/REC-SVG-20010904/DTD/svg10.dtd">
<svg version="1.0" xmlns="http://www.w3.org/2000/svg"
 width="700.000000pt" height="700.000000pt" viewBox="0 0 700.000000 700.000000"
 preserveAspectRatio="xMidYMid meet">
<metadata>
Created by potrace 1.14, written by Peter Selinger 2001-2017
</metadata>
<g transform="translate(0.000000,700.000000) scale(0.100000,-0.100000)"
fill="#000000" stroke="none">
<path d="M1497 6737 c-33 -144 -61 -272 -63 -285 -3 -12 -34 -154 -70 -315
-36 -161 -68 -301 -70 -312 -11 -58 -46 -215 -54 -245 -10 -36 -98 -436 -106
-480 -3 -14 -7 -33 -10 -42 -3 -9 -7 -27 -9 -40 -11 -54 -106 -486 -115 -518
-9 -35 -75 -329 -90 -405 -5 -22 -32 -143 -60 -270 -29 -126 -54 -240 -56
-252 -2 -12 -27 -122 -54 -245 -28 -123 -68 -306 -90 -408 -22 -102 -45 -201
-50 -220 -10 -35 -98 -434 -106 -480 -3 -14 -7 -33 -10 -42 -3 -10 -7 -28 -9
-40 -3 -13 -16 -75 -31 -138 -14 -63 -28 -124 -30 -135 -2 -11 -34 -153 -70
-315 -37 -162 -70 -313 -75 -335 -4 -22 -26 -123 -49 -225 -23 -102 -43 -194
-46 -205 -13 -64 -46 -215 -54 -245 -5 -19 -23 -100 -40 -180 -17 -80 -35
-161 -40 -180 -5 -19 -14 -60 -20 -90 -7 -30 -14 -63 -17 -73 -4 -16 73 -17
1553 -15 1375 3 1557 5 1560 18 1 8 9 47 19 85 9 39 32 140 51 225 19 85 37
164 40 175 2 11 7 34 10 50 3 17 14 66 25 110 10 44 21 89 23 100 2 11 28 124
56 250 29 127 53 237 55 245 2 8 15 65 29 125 14 61 27 121 30 135 2 14 13 63
24 110 12 47 17 87 12 90 -4 3 -238 5 -520 4 l-512 0 6 30 c8 44 10 53 50 226
19 85 37 166 40 180 3 14 84 379 180 811 96 433 177 797 180 810 2 13 11 53
20 89 8 36 17 76 20 90 2 14 11 54 20 90 8 36 17 76 20 90 2 14 16 75 30 135
14 61 27 121 30 135 2 14 16 75 30 135 14 61 27 121 30 135 2 14 47 216 100
450 52 234 97 437 100 450 2 14 16 75 30 135 14 61 27 122 30 138 3 15 7 35
10 45 3 9 7 28 10 42 2 14 11 54 20 90 8 36 17 76 20 90 5 26 181 817 191 858
l5 22 -1037 0 -1038 0 -58 -263z"/>
<path d="M3885 6988 c-2 -7 -6 -26 -9 -43 -4 -24 -49 -224 -81 -360 -3 -11
-10 -45 -17 -75 -6 -30 -12 -57 -13 -60 -1 -3 -7 -32 -14 -65 -7 -33 -26 -114
-41 -180 -16 -66 -31 -131 -34 -145 -2 -14 -27 -126 -55 -250 -29 -124 -54
-237 -56 -252 -3 -15 -10 -39 -15 -54 -6 -15 -8 -29 -6 -31 3 -3 1 -16 -4 -29
-6 -14 -12 -35 -14 -47 -2 -12 -9 -42 -15 -67 -5 -24 -6 -47 -1 -50 4 -3 236
-5 515 -4 278 0 508 -3 510 -6 3 -4 -24 -138 -60 -298 -35 -159 -66 -300 -69
-313 -3 -13 -32 -145 -66 -294 -33 -148 -63 -282 -65 -297 -3 -16 -12 -58 -21
-95 -9 -38 -17 -75 -19 -83 -2 -8 -38 -170 -80 -360 -42 -190 -79 -352 -80
-360 -2 -8 -11 -49 -20 -90 -15 -66 -36 -162 -50 -225 -2 -11 -6 -29 -9 -40
-13 -56 -77 -343 -80 -360 -3 -11 -27 -121 -55 -245 -27 -124 -52 -236 -55
-250 -2 -14 -11 -54 -20 -90 -8 -36 -17 -76 -20 -90 -3 -14 -47 -216 -100
-450 -52 -234 -97 -436 -100 -450 -3 -14 -14 -68 -26 -120 -12 -52 -23 -102
-25 -110 -2 -8 -10 -45 -19 -83 -9 -37 -18 -82 -21 -100 -3 -17 -12 -57 -20
-87 -8 -30 -16 -66 -19 -80 -3 -14 -7 -36 -10 -50 -3 -14 -8 -36 -11 -50 -3
-14 -7 -34 -9 -45 -2 -11 -8 -38 -14 -60 -5 -22 -13 -52 -16 -68 l-6 -27 1556
2 c1375 3 1557 5 1559 18 2 8 10 47 19 85 25 105 25 105 42 180 8 39 17 77 19
85 2 8 13 58 25 110 11 52 27 122 35 155 15 65 55 241 60 265 2 8 24 107 50
220 25 113 48 215 51 227 16 82 74 332 80 347 4 10 2 21 -4 25 -5 3 -240 6
-521 5 l-511 0 6 35 c3 20 12 61 19 91 8 30 16 66 19 80 2 14 20 97 40 185 20
88 38 169 40 180 2 11 11 50 20 88 9 37 18 82 21 100 3 17 12 57 20 87 8 30
16 66 19 80 2 14 20 97 40 185 20 88 38 169 40 180 2 11 13 61 24 110 28 123
71 315 77 343 3 12 7 32 10 45 22 102 131 594 150 677 13 58 40 179 60 270 20
91 42 192 50 225 15 63 53 232 61 275 3 13 14 60 24 105 10 45 21 93 24 108 2
15 7 35 10 45 3 9 7 28 10 42 5 27 32 153 98 445 22 99 50 227 63 285 13 58
35 157 49 220 15 63 28 124 30 135 2 11 16 72 30 135 15 63 28 124 31 135 2
11 20 92 39 180 20 88 38 170 41 183 l4 22 -1555 0 c-1235 0 -1555 -3 -1559
-12z"/>
</g>
</svg>
